<svg xmlns="http://www.w3.org/2000/svg" viewBox="0 0 1518.22 1942.43"><defs><style>.a{fill:#fff;}</style></defs><title>ic_java_logo</title><path class="a" d="M1560.3,1774.89c-4.5,139.49-220.49,196.49-220.49,196.49-540,177-1051.44-49.5-1051.44-49.5,324,76.49,666,63,880.45,27C1426.6,1905.61,1560.3,1774.89,1560.3,1774.89Z" transform="translate(-42.08 -96.55)"/><path class="a" d="M508.86,810.43s-48-111,37.49-201,142.5-129,226.49-196.49c0,0,102-88.49,133.5-136.49,63.71-97.08,18.26-177,16.54-179.91,2.69,3.31,107.06,133.8,39,278.91,0,0-48,105-183,225,0,0-79.49,69-129,160.5,0,0-27,55.49,19.5,130.49,0,0,72,159,117,219C784.61,1109.31,564.13,967.31,508.86,810.43Z" transform="translate(-42.08 -96.55)"/><path class="a" d="M534.35,1491.4s-58.49,72,154.5,63,250.48-40.5,276-45l124.5,79.49s-300,163.5-651,39C438.36,1627.89,309.37,1533.4,534.35,1491.4Z" transform="translate(-42.08 -96.55)"/><path class="a" d="M1182.93,1143l5.39-4.06C1188.9,1140.18,1187,1141.54,1182.93,1143Z" transform="translate(-42.08 -96.55)"/><path class="a" d="M1212.32,1117.92c139.49-93,226.49-13.5,226.49-13.5,94.49,96,22.5,219,22.5,219-85.5,154.49-288,163.49-288,163.49,90-64.5,109.5-94.5,109.5-94.5s109.49-99,88.49-195S1212.32,1117.92,1212.32,1117.92Z" transform="translate(-42.08 -96.55)"/><path class="a" d="M265.87,1107.42s49.49-30,307.48-33c0,0-276,66-118.49,97.5,147.34,29.46,668.86-8,728.07-28.94l-122.1,91.93s-471,90-804,10.5C256.87,1245.41,81.38,1185.41,265.87,1107.42Z" transform="translate(-42.08 -96.55)"/><path class="a" d="M1116.32,1407.4s-372,162-742.46,19.5c0,0-153-75,103.5-138,0,0-69.5,56,76,83,0,0,276.49,29.49,446-38Z" transform="translate(-42.08 -96.55)"/><path class="a" d="M118.87,1801.88s-120-64.49-60-142.49,256.48-63,256.48-63l75,43.5c-204-7.5-165,62-165,62,144,158.49,806.3,95.86,928,70,254-54,192.49-166.49,192.49-166.49,226.49,130.5-138,232.49-138,232.49C505.86,1992.37,118.87,1801.88,118.87,1801.88Z" transform="translate(-42.08 -96.55)"/><path class="a" d="M1245.32,441.45s-271.49,169.49-297,255c0,0-21,64.5,48,154.49s18,184.49,18,184.49-34.5,77.5-175.49,118c0,0,91.49-59.5,70.5-167.5,0,0-9-33-76.5-117,0,0-72-90-9-222S1131.32,447.45,1245.32,441.45Z" transform="translate(-42.08 -96.55)"/></svg>