<svg xmlns="http://www.w3.org/2000/svg" viewBox="0 0 996.01 796.95"><defs><style>.a{font-size:465px;font-family:EdwardianScriptITC, Edwardian Script ITC;}.a,.b,.d{fill:#fff;}.b{font-size:50px;font-family:ArialMT, Arial;letter-spacing:-0.04em;}.c{letter-spacing:-0.1em;}</style></defs><title>ic_meda_logo</title><text class="a" transform="translate(104.01 455.45)">meda</text><text x="-64.99" y="95.38"></text><text x="-64.99" y="95.38"></text><text x="-64.99" y="95.38"></text><text class="b" transform="translate(423.1 522.18)">Mission Economic<tspan x="-65.6" y="47.6">Development</tspan><tspan class="c" x="207" y="47.6"> </tspan><tspan x="216.13" y="47.6">Agency</tspan></text><text x="-64.99" y="95.38"></text><ellipse class="d" cx="274" cy="462" rx="28.12" ry="19.56" transform="matrix(0.5, -0.87, 0.87, 0.5, -328.1, 563.67)"/><ellipse class="d" cx="187.38" cy="452.45" rx="36.7" ry="25.53" transform="translate(-314.1 325.78) rotate(-40.54)"/><ellipse class="d" cx="122.81" cy="396.13" rx="36.41" ry="25.33" transform="translate(-292.99 270.3) rotate(-40.54)"/><ellipse class="d" cx="104.62" cy="296.86" rx="44.8" ry="31.17" transform="translate(-232.83 234.64) rotate(-40.54)"/><ellipse class="d" cx="166.23" cy="183.91" rx="51.46" ry="35.8" transform="translate(-144.63 247.57) rotate(-40.54)"/><ellipse class="d" cx="281.64" cy="120.91" rx="56.34" ry="39.19" transform="matrix(0.8, -0.6, 0.6, 0.8, -81.36, 287.9)"/><ellipse class="d" cx="402.64" cy="137.91" rx="60.49" ry="42.08" transform="translate(-52.48 403.4) rotate(-42.47)"/></svg>