<svg xmlns="http://www.w3.org/2000/svg" viewBox="0 0 425.26 378.52"><defs><style>.a{fill:#fff;}</style></defs><title>ic_tools_resources</title><path class="a" d="M182.53,272.59,215,308.13l-107.32,106a10.89,10.89,0,0,1-15.27,0l-19-18.75a10.56,10.56,0,0,1,0-15.07Z" transform="translate(-17.09 -38.68)"/><path class="a" d="M377.2,391.62,355,410.81a10.47,10.47,0,0,1-14.84-1.14L235.5,286.8l-30.65-36L168.8,208.49a10.67,10.67,0,0,1,1.14-15l22.19-19.19A10.46,10.46,0,0,1,207,175.48L378.33,376.66A10.67,10.67,0,0,1,377.2,391.62Z" transform="translate(-17.09 -38.68)"/><path class="a" d="M260.76,196.18l29.17,33.7,38.24-36.3s16.2-17.82,49.26-8.1,55.42-27.55,55.42-27.55S448.08,132,440,85.67c0,0-2.61-14.23-11-2.59-4.21,5.83-7.25,11-13.13,19.74C406,117.41,392.95,134.36,381,129.1c0,0-31.11-12.64-29.49-32.08a37.33,37.33,0,0,1,3.56-10.37L376.14,51s2.92-5.19-5.83-8.1c0,0-9.07,1.3-38.89,20.42s-25.6,41.16-25.6,41.16,0,36.62-3.24,44.4c0,0,.65,1-8.43,12Z" transform="translate(-17.09 -38.68)"/><path class="a" d="M253.63,39l-72.27-.32S131.78,54.56,73.77,105.76c0,0,.65,12.64-9.72,26.57,0,0-4.86,8.1-24.63,7.78L17.38,157S16.08,164.42,19,166s30.46,32.41,30.46,32.41,4.86,9.72,11.34,0l15.88-12.64S82.84,156,97.43,155.35c0,0,16.53-6.16,40.19,22,0,0,5.51,9.72,12.32,1.3l31.44-29.17s7.13-3.56.32-8.1c0,0-24.31-20.09-21.07-38.57C160.62,102.85,156.09,78.86,253.63,39Z" transform="translate(-17.09 -38.68)"/></svg>