<svg xmlns="http://www.w3.org/2000/svg" viewBox="0 0 249.6 657.9"><title>slider</title><path d="M249.5,142.9v-2.7C248.2,62.6,192.8,0,124.7,0S1.2,62.6,0,140.2V513.7H.1c0,1.4-.1,2.7-.1,4.1,0,77.3,55.9,140.1,124.8,140.1s124.8-62.7,124.8-140.1c0-1.4,0-2.8-.1-4.1h.1V142.9Zm-24,355.9h0v3.8c0,71.2-45.1,128.9-100.8,128.9S23.9,573.8,23.9,502.6v-3.8h0V155.1c1-71.5,45.8-129,100.8-129s99.8,57.5,100.8,129Z"/><path d="M236.4,149.6V147c-1.1-75.3-50-135.9-110.3-135.9S17,71.7,15.9,147V509h0v4c0,75,49.4,135.8,110.3,135.8S236.4,588,236.4,513v-4h0Zm-21.1,345h0v3.7c0,69-39.9,124.9-89.1,124.9S37.1,567.3,37.1,498.3v-3.7h0V161.4C38,92.1,77.5,36.3,126.2,36.3s88.2,55.8,89.1,125.1Z"/><path d="M124.4,328.4Z"/><path d="M124.4,328.4Z"/></svg>