<svg xmlns="http://www.w3.org/2000/svg" viewBox="0 0 3243.6 1495.76"><defs><style>.a{fill:#fff;}</style></defs><title>ic_lynda_logo</title><rect class="a" x="1603.35" y="652.44" width="52.06" height="284.58"/><path class="a" d="M2204.57,1508v122.77h-37.07v-52.31l-.39-67.34c-7.45-6.59-22.29-13.55-32.58-13.55-16.54,0-31,10.18-38.41,25.22a53.64,53.64,0,0,0,0,47.06v60.92h-38.29V1460.71h38.29v10.09a71.39,71.39,0,0,1,81.07,2.87,84.64,84.64,0,0,1,26.82,33.11C2204.2,1507.17,2204.39,1507.59,2204.57,1508Z" transform="translate(-162.98 -690.27)"/><path class="a" d="M2096.13,1522.79v47.06a53.64,53.64,0,0,1,0-47.06Z" transform="translate(-162.98 -690.27)"/><path class="a" d="M2415.31,1558.17v-28.32m-38.18,25.43a48.8,48.8,0,0,0,0-22.54" transform="translate(-162.98 -690.27)"/><path class="a" d="M2377.13,1346.18v125.17a86.77,86.77,0,1,0,0,145.3v14.11h38.18V1346.18Zm0,209.1a48.8,48.8,0,1,1,1.32-11.27A48.74,48.74,0,0,1,2377.13,1555.27Z" transform="translate(-162.98 -690.27)"/><path class="a" d="M2585.35,1457.24v15.66c-.76-.53-1.53-1-2.29-1.55a86.77,86.77,0,1,0,0,145.3c.76-.51,1.53-1,2.29-1.55v12.19h45.12V1457.24Zm-2.29,98a48.75,48.75,0,1,1,0-22.54Z" transform="translate(-162.98 -690.27)"/><path class="a" d="M2057.83,1562.42v-32.21" transform="translate(-162.98 -690.27)"/><path class="a" d="M2731,1597.85a32.82,32.82,0,1,1-32.83-32.92A32.87,32.87,0,0,1,2731,1597.85Z" transform="translate(-162.98 -690.27)"/><path class="a" d="M2957.13,1514.92a92.46,92.46,0,0,0,0,27.67,92.46,92.46,0,0,0,0-27.67Z" transform="translate(-162.98 -690.27)"/><path class="a" d="M2805.67,1528.76a60.12,60.12,0,0,0,108.08,35.86v42.67a92.45,92.45,0,0,1-48,13.35c-51,0-92.43-41.14-92.43-91.88s41.39-91.88,92.43-91.88a92.45,92.45,0,0,1,48,13.35v42.67a60.12,60.12,0,0,0-108.08,35.86Z" transform="translate(-162.98 -690.27)"/><path class="a" d="M2957.13,1514.92a92.46,92.46,0,0,0,0,27.67,92.46,92.46,0,0,0,0-27.67Z" transform="translate(-162.98 -690.27)"/><path class="a" d="M3048.52,1436.88c-46.32,0-84.68,33.87-91.39,78a92.46,92.46,0,0,1,0,27.67c6.71,44.17,45.07,78,91.39,78,51,0,92.43-41.14,92.43-91.88S3099.56,1436.88,3048.52,1436.88Zm0,151.6a59.72,59.72,0,1,1,60.07-59.72A59.9,59.9,0,0,1,3048.52,1588.48Z" transform="translate(-162.98 -690.27)"/><path class="a" d="M3406.57,1477v139.66h-27.77V1481.14c-7.5-9-17.28-14.41-28-14.41-13.91,0-26.26,9.16-34.11,23.37v2.8h-.37v123.79h-30.08V1484.15c-.72-1-1.5-2-2.31-3a48.12,48.12,0,0,0-4.63-4.81c-6.71-6.09-14.74-9.6-23.37-9.6-8.24,0-15.94,3.22-22.47,8.82a54.79,54.79,0,0,0-14.32,20,75.1,75.1,0,0,0-5.78,22.63v97.36h-28.92V1439.68h28.92v16.45c11.5-13.44,26.35-21.56,42.57-21.56,18.6,0,35.42,10.67,47.43,27.86,12-17.19,28.83-27.86,47.43-27.86,22.61,0,42.6,15.76,54.51,39.82Q3406,1475.67,3406.57,1477Z" transform="translate(-162.98 -690.27)"/><polygon class="a" points="1876.67 779.04 1798.91 894.76 1774.75 930.71 1723.02 1007.69 1674.87 1008.55 1751.4 894.64 1676.67 779.04 1724.73 779.99 1775.58 858.66 1828.52 779.88 1876.67 779.04"/><path class="a" d="M283,1520.66l12.73,11.57.67-.12Z" transform="translate(-162.98 -690.27)"/><path class="a" d="M1210.56,1071.79H1205v-3.31h4.19C1209.68,1069.52,1210.12,1070.63,1210.56,1071.79Z" transform="translate(-162.98 -690.27)"/><path class="a" d="M1210.56,1071.79H1205v-11.5a72.17,72.17,0,0,1,4.19,8.19C1209.68,1069.52,1210.12,1070.63,1210.56,1071.79Z" transform="translate(-162.98 -690.27)"/><path class="a" d="M755,1093.08" transform="translate(-162.98 -690.27)"/><ellipse class="a" cx="1096.42" cy="509.93" rx="6.94" ry="11.57"/><path class="a" d="M1236.56,1314.18v.23c.35-.32.58-.58.72-.72Z" transform="translate(-162.98 -690.27)"/><path class="a" d="M296.39,1532.11l-.67.12L283,1520.66Z" transform="translate(-162.98 -690.27)"/><path class="a" d="M910.85,690.27c-413,0-747.88,334.85-747.88,747.88S497.82,2186,910.85,2186s747.88-334.85,747.88-747.88S1323.88,690.27,910.85,690.27Zm-477,952.88,8.77-23s236.1-76,296.72-40.21ZM1136.77,1774l-53.54-145.61c15.64-26.84,40.81-48.75,40.81-48.75,6.78-18,96,114.62,100.49,121.22Zm366.73-123.6L1308,1802.94l-56-96.51,193.64-130.24,57.84,45.12Zm25.45-19.85-75.2-77.51h-30.08l-1.16-12.73h86.77l59.58-59.58s27.19-641.49-507.29-692.39c0,0-248.73-19.67-297.32,242.95l.09-.07c1.23-1,15.69-13.14,36.93-32.37,40.47-36.65,105.58-99.1,150.39-159.6,0,0,146.92,197.83,251,217.49a37.48,37.48,0,0,1,2.31,3.54,72.17,72.17,0,0,1,4.19,8.19c.46,1,.9,2.15,1.34,3.31H1205v-3.31h-78.67V1081h87.14c5.3,21.17,4.21,54-31.61,89.08v24.29l34.13,34.13h14.46v-61.89s45.12-96,56.69-45.12,5.78,112.22,5.78,112.22-19.67,42.8-44,10.41c-8.54-11.38-11.8,22-12.42,70l.72-.49c-.14.14-.37.39-.72.72-1.13,88.64,6.64,227.07,6.64,227.07h159.65l2.31,30.08-.16.12.56,8L1243.2,1690.72l-21.22-27,.09-.07c-42-52.8-139.68-176.7-139.68-185.8,0-11.06,141.9-151.32,154.17-163.44v-.23l-199.28,141.69s-77.51,31.24-130.73-10.41c-19-14.88-40.49-50.23-60.3-89.57-1.55-3.05-3.08-6.15-4.6-9.26-3.68-7.52-7.31-15.16-10.81-22.74a0,0,0,0,0,0,0c-28.51-61.8-50.37-122.51-50.37-122.51l-2-72.28-.28-9.86c-52.06,0-50.32-38.06-50.32-38.06,6.8-35.45,39.59-37.16,45.84-37.16l1,0-10.41-12.73-.16,0c-2.85.81-42.32,12.52-49.7,36.53H678.64v13.28h35c4.21,30.31,24,36.9,24,36.9v318.14c8.1,75.2,96,96,96,96l267.24,10.41,16.2,22-48.36,54c-35.56,7.82-155.18,43.54-211.94,178.55l-60.16-229.06-24.85,5.14c-13.91-14.74-74.32-44.66-331.47,23.79,0,0-5.78-98.34-157.34-76.35l13.4,11.45c10.5-1.74,140.35-20.73,117.19,100.33L296.39,1532.11l-.67.12L283,1520.66l84.8,404.65A726.79,726.79,0,0,1,181.3,1438.15c0-402.92,326.63-729.55,729.55-729.55s729.55,326.63,729.55,729.55A728.75,728.75,0,0,1,1607,1657Zm-230.43-340.49c0,8.1-6.94,14.67-15.5,14.67s-15.53-6.57-15.53-14.67,6.94-14.67,15.53-14.67S1298.53,1282,1298.53,1290.07Z" transform="translate(-162.98 -690.27)"/><path class="a" d="M1237.28,1313.69c-.14.14-.37.39-.72.72v-.23Z" transform="translate(-162.98 -690.27)"/><path class="a" d="M960.92,1341.29s-60.16,67-127.26,4.27-2.31-21.37-2.31-21.37,28.92,29.92,52.06,29.92S947,1337,947,1337,965.55,1332.74,960.92,1341.29Z" transform="translate(-162.98 -690.27)"/><path class="a" d="M943.57,1327.46s-31.24-28.92-84.45-22c0,0-16.2,1.16-4.63,26.61C854.49,1332.09,941.26,1336.72,943.57,1327.46Z" transform="translate(-162.98 -690.27)"/><path class="a" d="M890.36,1247.35s-64.79,41.94-77.13-17.18c-2.34-11.23,33.16,22.1,33.16,22.1s-19.08-10.94-5.23-7.2,41.8-3.39,41.8-3.39S895,1241.25,890.36,1247.35Z" transform="translate(-162.98 -690.27)"/><path class="a" d="M774.67,1044c-44-1.16-10.41-12.73-10.41-12.73l37-35.86v32.39Z" transform="translate(-162.98 -690.27)"/><path class="a" d="M775.82,1142.36c-62.47,2.31,2.31-23.14,2.31-23.14Z" transform="translate(-162.98 -690.27)"/><polygon class="a" points="1340.53 931.04 1282.68 885.92 1089.04 1016.16 1278.45 882.45 1340.53 931.04"/><path class="a" d="M839.45,1087.41c0,1,0,1.9-.07,2.82a39.77,39.77,0,0,1-2.2,11.29,33.47,33.47,0,0,1-6.73,11.29c-16.17,18-48.77,16.45-52,16.27l-.28,0v-9.83c53.8,2.89,49.17-26.15,49.17-26.15h-74v-13.77h75.2c4-38.76-53.8-35.28-53.8-35.28l26.61-16.2-.58,11s24.5,1.46,34.57,25.34a55.2,55.2,0,0,1,3.75,15A76.23,76.23,0,0,1,839.45,1087.41Z" transform="translate(-162.98 -690.27)"/><path class="a" d="M1056.62,1081.89a36.48,36.48,0,0,0-3-10.6c-8.58-19.37-33-33.33-61.71-33.33-27.67,0-51.32,12.93-60.71,31.17a38.15,38.15,0,0,0-4,12.79A36.57,36.57,0,0,0,928.9,1099a42.05,42.05,0,0,0,6.5,11.92c11.22,14.64,32.3,24.5,56.48,24.5,35.93,0,65.06-21.81,65.06-48.72A36.79,36.79,0,0,0,1056.62,1081.89Zm-64.74,46.19c-27.3,0-50-14.81-54.47-34.28a30.3,30.3,0,0,1-.83-7.11c0-.36,0-.71,0-1.05.74-22.38,25.2-40.36,55.28-40.36,28.57,0,52.11,16.26,55,37.1a33.13,33.13,0,0,1,.28,4.3,32.23,32.23,0,0,1-.53,5.8C1042.85,1112.6,1019.76,1128.09,991.88,1128.09Z" transform="translate(-162.98 -690.27)"/><rect class="a" x="803.15" y="390.19" width="83.87" height="11.57"/><path class="a" d="M1054.63,1079.89" transform="translate(-162.98 -690.27)"/><polygon class="a" points="887.03 377.47 925.78 377.47 925.78 389.62 889.34 389.62 887.03 377.47"/><path class="a" d="M928.9,1099.49c-.35-1.13-.65-2.27-.93-3.42l-.07-.39a46,46,0,0,1-1.09-9.3c0-.32,0-.65,0-1a47.8,47.8,0,0,1,.32-5.48c-5.62-22.65-23.28-39.15-44.15-39.15-20.66,0-38.13,16.15-44,38.43a76.23,76.23,0,0,1,.44,8.21c0,1,0,1.9-.07,2.82a39.77,39.77,0,0,1-2.2,11.29,33.47,33.47,0,0,1-6.73,11.29,75.58,75.58,0,0,1-2-17.31,74.37,74.37,0,0,1,6.8-31.35c9.28-19.92,27.19-33.43,47.71-33.43,20.92,0,39.06,14,48.2,34.54.32.72.62,1.43.93,2.17a72.89,72.89,0,0,1,4.51,16.75l.07.46a70.07,70.07,0,0,1,.74,8.88,1.11,1.11,0,0,1,0,.28v0c0,.56,0,1.09,0,1.67a76.05,76.05,0,0,1-1.67,15.9Z" transform="translate(-162.98 -690.27)"/><path class="a" d="M839,1079.19a76.23,76.23,0,0,1,.44,8.21c0,1,0,1.9-.07,2.82a39.77,39.77,0,0,1-2.2,11.29c-.19-2-.28-4-.28-6A63.52,63.52,0,0,1,839,1079.19Z" transform="translate(-162.98 -690.27)"/><path class="a" d="M929,1095.51c0,1.34,0,2.66-.14,4a47.74,47.74,0,0,1-1.78-19.57A63.7,63.7,0,0,1,929,1095.51Z" transform="translate(-162.98 -690.27)"/></svg>