<svg xmlns="http://www.w3.org/2000/svg" viewBox="0 0 249.6 657.9"><defs><style>.a{fill:#fff;}</style></defs><title>slider_white</title><path class="a" d="M325.6,157.9v-2.7C324.3,77.6,268.9,15,200.8,15S77.3,77.6,76.1,155.2V528.7h.1c0,1.4-.1,2.7-.1,4.1,0,77.3,55.9,140.1,124.8,140.1s124.8-62.7,124.8-140.1c0-1.4,0-2.8-.1-4.1h.1V157.9Zm-24,355.9h0v3.8c0,71.2-45.1,128.9-100.8,128.9S100,588.8,100,517.6v-3.8h0V170.1c1-71.5,45.8-129,100.8-129s99.8,57.5,100.8,129V513.8Z" transform="translate(-76.1 -15)"/><path class="a" d="M312.5,164.6V162c-1.1-75.3-50-135.9-110.3-135.9S93.1,86.7,92,162V524h0v4c0,75,49.4,135.8,110.3,135.8S312.5,603,312.5,528v-4h0Zm-21.1,345h0v3.7c0,69-39.9,124.9-89.1,124.9s-89.1-55.9-89.1-124.9v-3.7h0V176.4c.9-69.3,40.4-125.1,89.1-125.1s88.2,55.8,89.1,125.1V509.6Z" transform="translate(-76.1 -15)"/><path class="a" d="M223.5,381.7h.3v1c0,16-10.4,29.1-23.3,29.1s-23.3-13.1-23.3-29.1v-1h.3V305.2c0-.2-.2-.4-.2-.6.2-16.1,10.5-29,23.2-29s22.9,12.9,23.1,29c0,.2-.2.4-.2.6v76.5Z" transform="translate(-76.1 -15)"/><path class="a" d="M200.5,343.4h0v0Z" transform="translate(-76.1 -15)"/><path class="a" d="M200.5,343.4v0Z" transform="translate(-76.1 -15)"/></svg>