<svg xmlns="http://www.w3.org/2000/svg" viewBox="0 0 363 657.87"><defs><style>.a{fill:#fff;}</style></defs><title>slider_white</title><path class="a" d="M325.57,157.9q0-1.33,0-2.66C324.31,77.56,268.93,15,200.8,15S77.3,77.56,76.06,155.24q0,1.33,0,2.66V528.73h.06q-.05,2.05-.06,4.12C76,610.2,131.9,672.91,200.8,672.91s124.77-62.7,124.77-140.05q0-2.06-.06-4.12h.06ZM301.64,513.82h0c0,1.26,0,2.53,0,3.8,0,71.18-45.15,128.89-100.83,128.89S100,588.81,100,517.62c0-1.27,0-2.54,0-3.8h0V172.55c0-.82,0-1.63,0-2.45,1-71.49,45.75-129,100.81-129s99.81,57.54,100.81,129c0,.82,0,1.63,0,2.45Z" transform="translate(-19.51 -15.03)"/><path class="a" d="M312.53,164.57q0-1.29,0-2.58c-1.09-75.3-50-135.9-110.26-135.9S93.09,86.69,92,162q0,1.29,0,2.58V524h0q0,2,0,4c0,75,49.37,135.75,110.28,135.75S312.53,603,312.53,528q0-2,0-4h0Zm-21.16,345h0c0,1.22,0,2.45,0,3.68,0,69-39.9,124.93-89.12,124.93s-89.12-55.94-89.12-124.93c0-1.23,0-2.46,0-3.68h0V178.77c0-.79,0-1.58,0-2.37.88-69.3,40.44-125.07,89.1-125.07s88.22,55.77,89.1,125.07c0,.79,0,1.58,0,2.37Z" transform="translate(-19.51 -15.03)"/><path class="a" d="M19.51,69.74h0q0,1.93,0,3.87Z" transform="translate(-19.51 -15.03)"/><path class="a" d="M382.51,69.74v3.87c0-1.29-.43-2.58-.45-3.87Z" transform="translate(-19.51 -15.03)"/><path class="a" d="M54.32,91.74c0,1,.19,2,.19,3.16V91.74Z" transform="translate(-19.51 -15.03)"/><path class="a" d="M347.51,91.74V94.9c0-1.19-.21-2.16-.23-3.16Z" transform="translate(-19.51 -15.03)"/><path class="a" d="M223.51,381.74h.31c0,1,0,.7,0,1,0,16-10.44,29.07-23.32,29.07s-23.32-13.08-23.32-29.1c0-.29,0,0,0-1h.31V305.21c0-.18-.16-.37-.16-.55.23-16.09,10.5-29,23.24-29s22.88,12.95,23.12,29c0,.18-.2.37-.2.55Z" transform="translate(-19.51 -15.03)"/><path class="a" d="M200.51,343.38h0q0,.36,0,.72Z" transform="translate(-19.51 -15.03)"/><path class="a" d="M200.52,343.38v.72q0-.36,0-.72Z" transform="translate(-19.51 -15.03)"/></svg>