<?xml version="1.0" encoding="utf-8"?>
<!-- Generator: Adobe Illustrator 20.1.0, SVG Export Plug-In . SVG Version: 6.00 Build 0)  -->
<svg version="1.1" id="Layer_1" xmlns="http://www.w3.org/2000/svg" xmlns:xlink="http://www.w3.org/1999/xlink" x="0px" y="0px"
	 viewBox="0 0 401 687.5" style="enable-background:new 0 0 401 687.5;" xml:space="preserve">
<g>
	<path d="M325.6,157.9c0-0.9,0-1.8,0-2.7C324.3,77.6,268.9,15,200.8,15S77.3,77.6,76.1,155.2c0,0.9,0,1.8,0,2.7v370.8h0.1
		c0,1.4-0.1,2.7-0.1,4.1c0,77.3,55.9,140.1,124.8,140.1s124.8-62.7,124.8-140.1c0-1.4,0-2.8-0.1-4.1h0.1V157.9z M301.6,513.8
		L301.6,513.8c0,1.3,0,2.5,0,3.8c0,71.2-45.1,128.9-100.8,128.9c-55.7,0-100.8-57.7-100.8-128.9c0-1.3,0-2.5,0-3.8h0V172.6
		c0-0.8,0-1.6,0-2.5c1-71.5,45.8-129,100.8-129s99.8,57.5,100.8,129c0,0.8,0,1.6,0,2.5V513.8z"/>
</g>
<g>
	<path d="M312.5,164.6c0-0.9,0-1.7,0-2.6c-1.1-75.3-50-135.9-110.3-135.9S93.1,86.7,92,162c0,0.9,0,1.7,0,2.6V524h0c0,1.3,0,2.7,0,4
		c0,75,49.4,135.8,110.3,135.8S312.5,603,312.5,528c0-1.3,0-2.7,0-4h0V164.6z M291.4,509.6L291.4,509.6c0,1.2,0,2.5,0,3.7
		c0,69-39.9,124.9-89.1,124.9s-89.1-55.9-89.1-124.9c0-1.2,0-2.5,0-3.7h0V178.8c0-0.8,0-1.6,0-2.4c0.9-69.3,40.4-125.1,89.1-125.1
		s88.2,55.8,89.1,125.1c0,0.8,0,1.6,0,2.4V509.6z"/>
</g>
<g>
	<path d="M19.5,69.7L19.5,69.7c0,1.3,0,2.6,0,3.9V69.7z"/>
</g>
<g>
	<path d="M382.5,69.7v3.9c0-1.3-0.4-2.6-0.5-3.9H382.5z"/>
</g>
<g>
	<path d="M54.3,91.7c0,1,0.2,2,0.2,3.2v-3.2H54.3z"/>
</g>
<g>
	<path d="M347.5,91.7v3.2c0-1.2-0.2-2.2-0.2-3.2H347.5z"/>
</g>
<g>
	<path d="M223.5,381.7h0.3c0,1,0,0.7,0,1c0,16-10.4,29.1-23.3,29.1c-12.9,0-23.3-13.1-23.3-29.1c0-0.3,0,0,0-1h0.3v-76.5
		c0-0.2-0.2-0.4-0.2-0.6c0.2-16.1,10.5-29,23.2-29c12.7,0,22.9,12.9,23.1,29c0,0.2-0.2,0.4-0.2,0.6V381.7z"/>
</g>
<g>
	<path d="M200.5,343.4L200.5,343.4c0,0.2,0,0.5,0,0.7V343.4z"/>
</g>
<g>
	<path d="M200.5,343.4v0.7C200.5,343.9,200.5,343.6,200.5,343.4L200.5,343.4z"/>
</g>
</svg>
